<svg width="24" height="21" viewBox="0 0 24 21" fill="none" xmlns="http://www.w3.org/2000/svg">
<path d="M8.46551 15.1569H15.5364C15.6542 15.1569 15.7507 15.0604 15.7507 14.9426V12.6928C15.7507 12.5749 15.6542 12.4785 15.5364 12.4785H14.465C14.3472 12.4785 14.2508 12.5749 14.2508 12.6928V13.657H9.75113V12.6928C9.75113 12.5749 9.65471 12.4785 9.53686 12.4785H8.46551C8.34766 12.4785 8.25124 12.5749 8.25124 12.6928V14.9426C8.25124 15.0604 8.34766 15.1569 8.46551 15.1569ZM17.5719 11.8625C17.5719 12.1466 17.6848 12.4191 17.8857 12.62C18.0866 12.8209 18.3591 12.9338 18.6433 12.9338C18.9274 12.9338 19.1999 12.8209 19.4008 12.62C19.6018 12.4191 19.7146 12.1466 19.7146 11.8625C19.7146 11.5783 19.6018 11.3058 19.4008 11.1049C19.1999 10.904 18.9274 10.7911 18.6433 10.7911C18.3591 10.7911 18.0866 10.904 17.8857 11.1049C17.6848 11.3058 17.5719 11.5783 17.5719 11.8625ZM23.9732 7.37353L23.3385 6.26469C23.3099 6.21581 23.2632 6.1802 23.2085 6.16565C23.1538 6.1511 23.0956 6.15878 23.0465 6.18702L21.6886 6.97981L19.5914 1.18919C19.4807 0.843669 19.263 0.542273 18.9699 0.328522C18.6767 0.114772 18.3231 -0.000272308 17.9603 4.84012e-07H6.35496C5.42557 4.84012e-07 4.60064 0.599954 4.31405 1.48649L2.31599 6.98249L0.955385 6.1897C0.90633 6.16146 0.848096 6.15378 0.793397 6.16833C0.738698 6.18288 0.69198 6.21849 0.663443 6.26737L0.0286715 7.37353C-0.0302525 7.47531 0.0045663 7.60387 0.106344 7.6628L1.72407 8.60558L1.33571 9.67692C1.30357 9.76263 1.2875 9.85369 1.2875 9.94476V19.2708C1.2875 19.6913 1.60355 20.0315 1.99191 20.0315H3.80248C4.13192 20.0315 4.41851 19.7824 4.48814 19.4342L4.69438 18.4245H19.3075L19.5138 19.4342C19.5861 19.7824 19.87 20.0315 20.1994 20.0315H22.01C22.3984 20.0315 22.7144 19.6913 22.7144 19.2708V9.94476C22.7144 9.85369 22.6983 9.76263 22.6662 9.67692L22.2778 8.60558L23.8929 7.6628C23.9415 7.63472 23.9772 7.58868 23.9922 7.53459C24.0072 7.48049 24.0004 7.42266 23.9732 7.37353ZM20.786 10.1483V16.496H3.21592V10.1483L3.63375 8.99662H20.3682L20.786 10.1483ZM6.1273 2.14269L6.14069 2.10787L6.15141 2.07305C6.18087 1.98467 6.26122 1.92574 6.35496 1.92574H17.8076L19.8271 7.49674H4.18013L6.1273 2.14269ZM4.28727 11.8625C4.28727 12.1466 4.40014 12.4191 4.60106 12.62C4.80197 12.8209 5.07447 12.9338 5.35861 12.9338C5.64275 12.9338 5.91525 12.8209 6.11617 12.62C6.31708 12.4191 6.42996 12.1466 6.42996 11.8625C6.42996 11.5783 6.31708 11.3058 6.11617 11.1049C5.91525 10.904 5.64275 10.7911 5.35861 10.7911C5.07447 10.7911 4.80197 10.904 4.60106 11.1049C4.40014 11.3058 4.28727 11.5783 4.28727 11.8625Z" fill="#002E5B"/>
</svg>
