<svg width="30" height="24" viewBox="0 0 30 24" fill="none" xmlns="http://www.w3.org/2000/svg">
<path d="M27.1875 23.2501H2.81252C1.26162 23.2501 0 21.9885 0 20.4376V15.75C0 15.2318 0.419299 14.8125 0.937506 14.8125C2.4884 14.8125 3.75002 13.5509 3.75002 12C3.75002 10.4491 2.4884 9.18749 0.937506 9.18749C0.419299 9.18755 0 8.76825 0 8.25005V3.56252C0 2.01162 1.26162 0.75 2.81252 0.75H27.1875C28.7384 0.75 30.0001 2.01162 30.0001 3.56252V8.25005C30.0001 8.76825 29.5808 9.18755 29.0626 9.18755C27.5117 9.18755 26.25 10.4492 26.25 12.0001C26.25 13.551 27.5117 14.8126 29.0626 14.8126C29.5808 14.8126 30.0001 15.2319 30.0001 15.7501V20.4376C30 21.9885 28.7384 23.2501 27.1875 23.2501ZM1.87501 16.5932V20.4376C1.87501 20.9548 2.29526 21.3751 2.81252 21.3751H27.1875C27.7048 21.3751 28.1251 20.9548 28.1251 20.4376V16.5932C25.9882 16.1575 24.375 14.2641 24.375 12C24.375 9.73587 25.9882 7.84261 28.1251 7.40678V3.56252C28.1251 3.04526 27.7048 2.62501 27.1875 2.62501H2.81252C2.29526 2.62501 1.87501 3.04526 1.87501 3.56252V7.40684C4.01184 7.84261 5.62503 9.73593 5.62503 12.0001C5.62503 14.2642 4.01184 16.1575 1.87501 16.5932Z" fill="#0064A0"/>
<path d="M11.3105 19.1582L16.9335 4.1635L18.6891 4.82185L13.0661 19.8166L11.3105 19.1582Z" fill="#0064A0"/>
<path d="M10.5654 12.3154C9.01455 12.3154 7.75293 11.0538 7.75293 9.50294C7.75293 7.95205 9.01455 6.69043 10.5654 6.69043C12.1163 6.69043 13.378 7.95205 13.378 9.50294C13.378 11.0538 12.1163 12.3154 10.5654 12.3154ZM10.5654 8.56543C10.0482 8.56543 9.62794 8.98568 9.62794 9.50294C9.62794 10.0202 10.0482 10.4404 10.5654 10.4404C11.0827 10.4404 11.503 10.0202 11.503 9.50294C11.503 8.98568 11.0827 8.56543 10.5654 8.56543Z" fill="#0064A0"/>
<path d="M20.2559 18.1304C18.705 18.1304 17.4434 16.8688 17.4434 15.3179C17.4434 13.767 18.705 12.5054 20.2559 12.5054C21.8068 12.5054 23.0684 13.767 23.0684 15.3179C23.0684 16.8688 21.8068 18.1304 20.2559 18.1304ZM20.2559 14.3804C19.7386 14.3804 19.3184 14.8006 19.3184 15.3179C19.3184 15.8352 19.7386 16.2554 20.2559 16.2554C20.7731 16.2554 21.1934 15.8352 21.1934 15.3179C21.1934 14.8006 20.7731 14.3804 20.2559 14.3804Z" fill="#0064A0"/>
</svg>
