<svg width="29" height="29" viewBox="0 0 29 29" fill="none" xmlns="http://www.w3.org/2000/svg">
<path d="M14.5 0C14.7628 1.10825e-05 15.0167 0.095184 15.2148 0.267918C15.4128 0.440653 15.5416 0.679263 15.5774 0.939622L15.5875 1.08752V3.68018C18.0841 3.93095 20.4171 5.03726 22.1912 6.81159C23.9652 8.58593 25.0712 10.9191 25.3216 13.4157L25.3752 13.4128H27.9128C28.1883 13.4129 28.4536 13.5176 28.6549 13.7057C28.8563 13.8938 28.9787 14.1513 28.9975 14.4262C29.0163 14.7011 28.93 14.9729 28.7561 15.1866C28.5822 15.4004 28.3337 15.5401 28.0607 15.5777L27.9128 15.5879L25.3201 15.5864C25.0697 18.0832 23.9635 20.4166 22.1892 22.1909C20.4148 23.9653 18.0814 25.0715 15.5846 25.3219L15.5875 25.3756V27.9131C15.5874 28.1887 15.4828 28.4539 15.2947 28.6553C15.1065 28.8566 14.849 28.979 14.5741 28.9978C14.2992 29.0166 14.0274 28.9303 13.8137 28.7564C13.6 28.5825 13.4602 28.334 13.4226 28.061L13.4125 27.9131L13.4139 25.3205C10.9171 25.07 8.58375 23.9639 6.80939 22.1895C5.03502 20.4151 3.92885 18.0818 3.6784 15.585L3.62475 15.5879H1.08719C0.811653 15.5878 0.546417 15.4831 0.345078 15.295C0.14374 15.1069 0.0213117 14.8494 0.00253087 14.5745C-0.0162499 14.2996 0.0700171 14.0278 0.243901 13.814C0.417785 13.6003 0.666321 13.4605 0.93929 13.423L1.08719 13.4128H3.67985C3.93062 10.9163 5.03693 8.58323 6.81126 6.80916C8.5856 5.03509 10.9188 3.92913 13.4154 3.67873L13.4125 3.62508V1.08752C13.4125 0.799095 13.5271 0.522479 13.731 0.318529C13.935 0.114578 14.2116 0 14.5 0ZM14.5 5.80013C12.1926 5.80013 9.97963 6.71676 8.34803 8.34836C6.71643 9.97997 5.7998 12.1929 5.7998 14.5003C5.7998 16.8078 6.71643 19.0207 8.34803 20.6523C9.97963 22.2839 12.1926 23.2005 14.5 23.2005C16.8074 23.2005 19.0204 22.2839 20.652 20.6523C22.2836 19.0207 23.2002 16.8078 23.2002 14.5003C23.2002 12.1929 22.2836 9.97997 20.652 8.34836C19.0204 6.71676 16.8074 5.80013 14.5 5.80013ZM14.5 8.7002C16.0383 8.7002 17.5136 9.31128 18.6013 10.399C19.689 11.4868 20.3001 12.962 20.3001 14.5003C20.3001 16.0386 19.689 17.5139 18.6013 18.6016C17.5136 19.6894 16.0383 20.3005 14.5 20.3005C12.9617 20.3005 11.4864 19.6894 10.3987 18.6016C9.31095 17.5139 8.69987 16.0386 8.69987 14.5003C8.69987 12.962 9.31095 11.4868 10.3987 10.399C11.4864 9.31128 12.9617 8.7002 14.5 8.7002Z" fill="#243444"/>
</svg>
