<svg width="77" height="37" viewBox="0 0 77 37" fill="none" xmlns="http://www.w3.org/2000/svg">
<path d="M43.7891 25.4688L46.25 32.0078L48.7051 25.4688H50.6211V34H49.1445V31.1875L49.291 27.4258L46.7715 34H45.7109L43.1973 27.4316L43.3438 31.1875V34H41.8672V25.4688H43.7891ZM57.9652 30.1914H54.4613V32.8164H58.557V34H52.9789V25.4688H58.516V26.6641H54.4613V29.0195H57.9652V30.1914ZM67.1316 34H65.6492L61.8465 27.9473V34H60.3641V25.4688H61.8465L65.6609 31.5449V25.4688H67.1316V34ZM75.7238 25.4688V31.1699C75.7238 32.0762 75.4328 32.7949 74.8508 33.3262C74.2727 33.8535 73.5012 34.1172 72.5363 34.1172C71.5598 34.1172 70.7844 33.8574 70.2102 33.3379C69.6359 32.8145 69.3488 32.0898 69.3488 31.1641V25.4688H70.8254V31.1758C70.8254 31.7461 70.9699 32.1816 71.259 32.4824C71.548 32.7832 71.9738 32.9336 72.5363 32.9336C73.677 32.9336 74.2473 32.332 74.2473 31.1289V25.4688H75.7238Z" fill="#0E0D0D"/>
<rect width="69" height="4" fill="#124473"/>
<rect y="14" width="51" height="4" fill="#124473"/>
<rect y="29" width="30" height="4" fill="#124473"/>
</svg>
