<svg width="27" height="27" viewBox="0 0 27 27" fill="none" xmlns="http://www.w3.org/2000/svg">
<path d="M14.3929 18.8571H16.1786M22.4286 15.2857V13.5C22.4286 13.0264 22.2404 12.5722 21.9055 12.2373C21.5707 11.9024 21.1165 11.7143 20.6429 11.7143H2.78571C2.31211 11.7143 1.85791 11.9024 1.52302 12.2373C1.18814 12.5722 1 13.0264 1 13.5V24.2143C1 24.6879 1.18814 25.1421 1.52302 25.477C1.85791 25.8119 2.31211 26 2.78571 26H20.6429C21.1165 26 21.5707 25.8119 21.9055 25.477C22.2404 25.1421 22.4286 24.6879 22.4286 24.2143V22.4286V15.2857ZM22.4286 15.2857H15.2857C14.3385 15.2857 13.4301 15.662 12.7603 16.3318C12.0906 17.0015 11.7143 17.9099 11.7143 18.8571C11.7143 19.8043 12.0906 20.7128 12.7603 21.3825C13.4301 22.0523 14.3385 22.4286 15.2857 22.4286H22.4286V15.2857ZM22.4286 15.2857C23.3758 15.2857 24.2842 15.662 24.954 16.3318C25.6237 17.0015 26 17.9099 26 18.8571C26 19.8043 25.6237 20.7128 24.954 21.3825C24.2842 22.0523 23.3758 22.4286 22.4286 22.4286V15.2857ZM6.35714 11.7143V6.35714C6.35714 4.93634 6.92155 3.57373 7.92621 2.56907C8.93087 1.56441 10.2935 1 11.7143 1C13.1351 1 14.4977 1.56441 15.5024 2.56907C16.507 3.57373 17.0714 4.93634 17.0714 6.35714V11.7143H6.35714ZM21.5357 18.8571H23.3214H21.5357ZM17.9643 18.8571H19.75H17.9643Z" stroke="#0877BA" stroke-width="2"/>
</svg>
